<?xml version="1.0" encoding="UTF-8" standalone="no"?>
<!DOCTYPE svg PUBLIC "-//W3C//DTD SVG 1.1//EN"
 "http://www.w3.org/Graphics/SVG/1.1/DTD/svg11.dtd">
<!-- Generated by graphviz version 2.38.0 (20140413.2041)
 -->
<!-- Title: %3 Pages: 1 -->
<svg width="516pt" height="298pt"
 viewBox="0.00 0.00 515.50 298.05" xmlns="http://www.w3.org/2000/svg" xmlns:xlink="http://www.w3.org/1999/xlink">
<g id="graph0" class="graph" transform="scale(1 1) rotate(0) translate(4 294.049)">
<title>%3</title>
<polygon fill="white" stroke="none" points="-4,4 -4,-294.049 511.5,-294.049 511.5,4 -4,4"/>
<!-- Radar1 -->
<g id="node1" class="node"><title>Radar1</title>
<polygon fill="lightgray" stroke="black" points="42,-126.317 0,-126.317 0,-108.317 42,-108.317 42,-126.317"/>
<text text-anchor="middle" x="21" y="-115.117" font-family="Times New Roman,serif" font-size="9.00">Radar1</text>
</g>
<!-- Angle -->
<g id="node9" class="node"><title>Angle</title>
<ellipse fill="lightblue" stroke="black" cx="275" cy="-26.8701" rx="26.7407" ry="26.7407"/>
<text text-anchor="middle" x="275" y="-24.6701" font-family="Times New Roman,serif" font-size="9.00">Angle</text>
</g>
<!-- Radar1&#45;&gt;Angle -->
<g id="edge1" class="edge"><title>Radar1&#45;&gt;Angle</title>
<path fill="none" stroke="green" stroke-width="0.493322" stroke-dasharray="1,5" d="M28.1453,-108.252C33.8021,-102.331 42.1935,-94.5195 51,-89.7401 112.024,-56.6217 192.23,-40.0708 238.251,-32.7791"/>
<polygon fill="green" stroke="green" stroke-width="0.493322" points="238.999,-36.2057 248.358,-31.2403 237.945,-29.2855 238.999,-36.2057"/>
</g>
<!-- Radar2 -->
<g id="node2" class="node"><title>Radar2</title>
<polygon fill="lightgray" stroke="black" points="102,-126.317 60,-126.317 60,-108.317 102,-108.317 102,-126.317"/>
<text text-anchor="middle" x="81" y="-115.117" font-family="Times New Roman,serif" font-size="9.00">Radar2</text>
</g>
<!-- Radar2&#45;&gt;Angle -->
<g id="edge2" class="edge"><title>Radar2&#45;&gt;Angle</title>
<path fill="none" stroke="green" stroke-width="0.388158" d="M88.759,-107.992C94.4688,-102.249 102.659,-94.7724 111,-89.7401 152.146,-64.9159 204.932,-47.1757 239.342,-37.2256"/>
<polygon fill="green" stroke="green" stroke-width="0.388158" points="240.294,-40.5937 248.966,-34.5073 238.391,-33.8572 240.294,-40.5937"/>
</g>
<!-- Radar3 -->
<g id="node3" class="node"><title>Radar3</title>
<polygon fill="lightgray" stroke="black" points="162,-126.317 120,-126.317 120,-108.317 162,-108.317 162,-126.317"/>
<text text-anchor="middle" x="141" y="-115.117" font-family="Times New Roman,serif" font-size="9.00">Radar3</text>
</g>
<!-- Radar3&#45;&gt;Angle -->
<g id="edge3" class="edge"><title>Radar3&#45;&gt;Angle</title>
<path fill="none" stroke="red" stroke-width="0.697787" stroke-dasharray="1,5" d="M149.303,-108.193C155.134,-102.684 163.246,-95.4036 171,-89.7401 193.907,-73.0095 221.581,-56.7165 242.621,-45.0535"/>
<polygon fill="red" stroke="red" stroke-width="0.697787" points="244.402,-48.0688 251.489,-40.1935 241.037,-41.9302 244.402,-48.0688"/>
</g>
<!-- Radar4 -->
<g id="node4" class="node"><title>Radar4</title>
<polygon fill="lightgray" stroke="black" points="222,-126.317 180,-126.317 180,-108.317 222,-108.317 222,-126.317"/>
<text text-anchor="middle" x="201" y="-115.117" font-family="Times New Roman,serif" font-size="9.00">Radar4</text>
</g>
<!-- Radar4&#45;&gt;Angle -->
<g id="edge4" class="edge"><title>Radar4&#45;&gt;Angle</title>
<path fill="none" stroke="green" stroke-width="0.304233" d="M207.829,-108.155C217.634,-96.4359 236.185,-74.2631 251.311,-56.1836"/>
<polygon fill="green" stroke="green" stroke-width="0.304233" points="254.244,-58.1327 257.976,-48.2171 248.875,-53.6409 254.244,-58.1327"/>
</g>
<!-- C1 -->
<g id="node5" class="node"><title>C1</title>
<polygon fill="lightgray" stroke="black" points="267.5,-126.317 240.5,-126.317 240.5,-108.317 267.5,-108.317 267.5,-126.317"/>
<text text-anchor="middle" x="254" y="-115.117" font-family="Times New Roman,serif" font-size="9.00">C1</text>
</g>
<!-- C1&#45;&gt;Angle -->
<g id="edge5" class="edge"><title>C1&#45;&gt;Angle</title>
<path fill="none" stroke="red" stroke-width="1.84324" d="M255.938,-108.155C258.376,-97.8845 262.721,-79.5852 266.648,-63.0486"/>
<polygon fill="red" stroke="red" stroke-width="1.84324" points="270.113,-63.6056 269.017,-53.0675 263.302,-61.9885 270.113,-63.6056"/>
</g>
<!-- C2 -->
<g id="node6" class="node"><title>C2</title>
<polygon fill="lightgray" stroke="black" points="337.5,-290.049 310.5,-290.049 310.5,-272.049 337.5,-272.049 337.5,-290.049"/>
<text text-anchor="middle" x="324" y="-278.849" font-family="Times New Roman,serif" font-size="9.00">C2</text>
</g>
<!-- C2&#45;&gt;Angle -->
<g id="edge6" class="edge"><title>C2&#45;&gt;Angle</title>
<path fill="none" stroke="green" stroke-width="0.240316" stroke-dasharray="1,5" d="M322.312,-271.945C320.482,-263.122 317.488,-248.592 315,-236.049 302.987,-175.48 289.539,-104.882 281.697,-63.4186"/>
<polygon fill="green" stroke="green" stroke-width="0.240316" points="285.124,-62.7048 279.828,-53.5285 278.246,-64.0045 285.124,-62.7048"/>
</g>
<!-- 20884 -->
<g id="node10" class="node"><title>20884</title>
<ellipse fill="white" stroke="black" cx="352" cy="-208.472" rx="27.6545" ry="27.6545"/>
<text text-anchor="middle" x="352" y="-206.272" font-family="Times New Roman,serif" font-size="9.00">20884</text>
</g>
<!-- C2&#45;&gt;20884 -->
<g id="edge9" class="edge"><title>C2&#45;&gt;20884</title>
<path fill="none" stroke="green" stroke-width="0.331286" d="M327.212,-271.953C329.983,-264.967 334.186,-254.374 338.348,-243.884"/>
<polygon fill="green" stroke="green" stroke-width="0.331286" points="341.682,-244.971 342.116,-234.386 335.175,-242.39 341.682,-244.971"/>
</g>
<!-- C3 -->
<g id="node7" class="node"><title>C3</title>
<polygon fill="lightgray" stroke="black" points="462.5,-126.317 435.5,-126.317 435.5,-108.317 462.5,-108.317 462.5,-126.317"/>
<text text-anchor="middle" x="449" y="-115.117" font-family="Times New Roman,serif" font-size="9.00">C3</text>
</g>
<!-- C3&#45;&gt;Angle -->
<g id="edge7" class="edge"><title>C3&#45;&gt;Angle</title>
<path fill="none" stroke="green" stroke-width="0.431312" d="M443.707,-107.947C439.707,-102.184 433.761,-94.7005 427,-89.7401 391.45,-63.6592 343.336,-46.5016 310.839,-37.0094"/>
<polygon fill="green" stroke="green" stroke-width="0.431312" points="311.447,-33.5444 300.872,-34.1953 309.545,-40.281 311.447,-33.5444"/>
</g>
<!-- C4 -->
<g id="node8" class="node"><title>C4</title>
<polygon fill="lightgray" stroke="black" points="507.5,-126.317 480.5,-126.317 480.5,-108.317 507.5,-108.317 507.5,-126.317"/>
<text text-anchor="middle" x="494" y="-115.117" font-family="Times New Roman,serif" font-size="9.00">C4</text>
</g>
<!-- C4&#45;&gt;Angle -->
<g id="edge8" class="edge"><title>C4&#45;&gt;Angle</title>
<path fill="none" stroke="green" stroke-width="0.485046" stroke-dasharray="1,5" d="M488.861,-108.279C484.702,-102.373 478.342,-94.5673 471,-89.7401 421.249,-57.0312 353.085,-40.6767 311.647,-33.253"/>
<polygon fill="green" stroke="green" stroke-width="0.485046" points="312.162,-29.7904 301.715,-31.5535 310.982,-36.6901 312.162,-29.7904"/>
</g>
<!-- 20884&#45;&gt;Angle -->
<g id="edge10" class="edge"><title>20884&#45;&gt;Angle</title>
<path fill="none" stroke="green" stroke-width="0.409874" d="M344.223,-181.707C336.592,-157.513 324.074,-120.53 310,-89.7401 305.296,-79.4483 299.471,-68.5915 293.932,-58.8949"/>
<polygon fill="green" stroke="green" stroke-width="0.409874" points="296.814,-56.8882 288.755,-50.0099 290.765,-60.4123 296.814,-56.8882"/>
</g>
<!-- 20893 -->
<g id="node11" class="node"><title>20893</title>
<ellipse fill="white" stroke="black" cx="390" cy="-117.317" rx="27.6545" ry="27.6545"/>
<text text-anchor="middle" x="390" y="-115.117" font-family="Times New Roman,serif" font-size="9.00">20893</text>
</g>
<!-- 20884&#45;&gt;20893 -->
<g id="edge11" class="edge"><title>20884&#45;&gt;20893</title>
<path fill="none" stroke="red" stroke-width="0.164476" d="M362.585,-182.637C366.579,-173.266 371.195,-162.437 375.487,-152.367"/>
<polygon fill="red" stroke="red" stroke-width="0.164476" points="378.77,-153.59 379.472,-143.019 372.331,-150.845 378.77,-153.59"/>
</g>
<!-- 20893&#45;&gt;Angle -->
<g id="edge12" class="edge"><title>20893&#45;&gt;Angle</title>
<path fill="none" stroke="red" stroke-width="0.201901" d="M368.369,-99.681C350.265,-85.7571 324.263,-65.7583 304.293,-50.3997"/>
<polygon fill="red" stroke="red" stroke-width="0.201901" points="306.206,-47.455 296.145,-44.1329 301.938,-53.0038 306.206,-47.455"/>
</g>
</g>
</svg>
